<svg height="512" viewBox="0 0 512 512" width="512" xmlns="http://www.w3.org/2000/svg"><g id="Layer_2" data-name="Layer 2"><g id="streaming"><circle id="background" cx="256" cy="256" fill="#8c4cd1" r="256"/><g fill="#fff"><path d="m121 256a113.32 113.32 0 0 0 75.86 106.9 10.44 10.44 0 0 0 12.63-4.9 11.11 11.11 0 0 0 -6-15.73 91.6 91.6 0 0 1 .29-172.64 10.83 10.83 0 0 0 5.85-15.35 10.82 10.82 0 0 0 -13.09-5.11 113.31 113.31 0 0 0 -75.54 106.83z"/><path d="m212.33 189.57a69.91 69.91 0 0 0 -.13 132.72 10.85 10.85 0 0 0 14.33-10.29 10.79 10.79 0 0 0 -7.35-10.27 48.23 48.23 0 0 1 .09-91.64 10.84 10.84 0 0 0 -3.47-21.09 11.14 11.14 0 0 0 -3.47.57z"/><path d="m315.46 149.13a10.82 10.82 0 0 0 -13.09 5.11 10.83 10.83 0 0 0 5.85 15.35 91.6 91.6 0 0 1 .29 172.64 11.11 11.11 0 0 0 -6 15.73 10.44 10.44 0 0 0 12.63 4.94 113.31 113.31 0 0 0 .32-213.77z"/><path d="m296.2 189a10.84 10.84 0 0 0 -3.47 21.11 48.23 48.23 0 0 1 .09 91.64 10.79 10.79 0 0 0 -7.35 10.25 10.85 10.85 0 0 0 14.33 10.26 69.91 69.91 0 0 0 -.13-132.72 11.14 11.14 0 0 0 -3.47-.54z"/><circle cx="256" cy="256" r="39.96"/></g></g></g></svg>